<svg xmlns="http://www.w3.org/2000/svg" width="325.8" height="162.6" viewBox="0 0 325.8 162.6"><path d="M1118.2,611.4c-.1,1.6-1.6,1.8-2.9,1.4-105.5.3-317.6,8.6-318.8,8.6,0-52.1.3-104.4.1-156.4,1.7-5,62.1-1.3,77.1-1.7,4.6,1.3,1.7,8.6,2.6,12.3s6,24.4,6.7,25.9c8.7,16.4,21,32.3,36.6,42.6,5.2,3.4,20.2,11,24.4,11.6s8.9,1,10.7,1.5a121.8,121.8,0,0,0,43.2-4.5c36.5-12.7,67.1-51.9,63.7-91.5-1.2-5.1,35.8-.3,41.8-1.4,14.2,1.9,19-4.2,19,5.4C1122.4,465.2,1118.2,591,1118.2,611.4Z" transform="translate(-796.5 -458.8)" fill="#80ffdb"/></svg>