<svg xmlns="http://www.w3.org/2000/svg" width="325.9" height="162.6" viewBox="0 0 325.9 162.6"><path d="M321.7,152.6c-.1,1.6-1.6,1.8-2.9,1.4-105.5.3-317.6,8.6-318.8,8.6C0,110.5.3,58.2.1,6.2c1.7-5,62.1-1.3,77.1-1.7,4.6,1.3,1.7,8.6,2.6,12.3s6,24.4,6.7,25.9c8.7,16.4,21,32.3,36.6,42.6,5.2,3.4,20.2,11,24.4,11.6s8.9,1,10.7,1.5a121.1,121.1,0,0,0,43.2-4.5C237.9,81.2,268.5,42,265.1,2.4c-1.2-5.1,35.8-.3,41.8-1.4,14.2,1.9,19-4.2,19,5.4C325.9,6.4,321.7,132.2,321.7,152.6Z" transform="translate(0 0)" fill="#f68829"/></svg>