<svg xmlns="http://www.w3.org/2000/svg" width="167.5" height="154.2" viewBox="0 0 167.5 154.2"><path d="M767.8,628.6c0-1.2.1-2.3.1-3.5.2-6.7.3-13.4.5-20.1,0-2,.1-4,.2-6.1,0-.5.2-.8.8-1a10.2,10.2,0,0,1,3.9-.5h6.6l18.1.3,15.9.3h6.4l.9-.2c-.1-.2-.1-.5-.3-.7-3.6-6.2-7.3-12.4-11-18.5s-8-13.6-12.1-20.4c-.9-1.6-1-1.7.7-2.7l8.3-5,17.1-10,.6-.3a1.4,1.4,0,0,1,2.1.4c.8,1.2,1.6,2.4,2.3,3.7L853.6,586l.6,1c.4.6.6.6,1.1,0l2.7-3.4,21.7-27.3,12.7-15.9.6-.7,1,.6,12.7,9.9c4.3,3.4,8.5,6.9,12.7,10.4,1.3,1,1.4,1.1.5,2.4a34.5,34.5,0,0,1-3.5,5l-18.1,22.8-6.1,7.7a2.3,2.3,0,0,1-.5.7l1.2.2,13.2.2,16.8.3,11.3.3c1.1.1,1.1.1,1.1,1.2,0,3.6-.1,7.3-.1,10.9l-.3,18.4c0,1.3-.1,2.6-.1,3.9s-.2,1-.8,1-2.6.1-3.9,0H912.8l-14.7-.3-14.4-.3h-.8l.6,1.3L896,657.4l10.2,17.2c.6.9.6,1-.4,1.6l-22.1,13.3c-1.7,1-3.4,1.9-5.1,3a.8.8,0,0,1-1.2-.2l-1.3-2.2-23.4-39.3-.8-1.3-.8.6-28,35.3c-2.1,2.6-4.2,5.2-6.2,7.9l-.7.6h-.1l-.7-.5-3.6-3c-7.6-6-15.2-12-22.7-18.1-.9-.7-.9-.9-.2-1.8s1.5-1.9,2.3-2.9c6.2-7.7,12.3-15.5,18.5-23.3l7.5-9.5a1.5,1.5,0,0,0,.3-.6,1.1,1.1,0,0,0-.7-.3l-11.3-.3h-8.6l-18.8-.3-9.3-.3c-.5,0-.7-.2-.8-.7a7.8,7.8,0,0,0-.2-1.6Z" transform="translate(-767.8 -539.7)" fill="#552f81"/></svg>