<svg xmlns="http://www.w3.org/2000/svg" width="167.5" height="154.2" viewBox="0 0 167.5 154.2"><path d="M0,88.9c0-1.2.1-2.3.1-3.5C.3,78.7.4,72,.6,65.3c0-2,.1-4,.2-6.1,0-.5.2-.8.8-1a10.5,10.5,0,0,1,3.9-.5h6.6l18.1.3,15.9.3h6.4l.9-.2c-.1-.2-.1-.5-.3-.7-3.6-6.2-7.3-12.4-11-18.5S34.1,25.3,30,18.5c-.9-1.6-1-1.7.7-2.7l8.3-5L56.1.8l.6-.3a1.4,1.4,0,0,1,2,.2h0c0,.1.1.1.1.2s1.6,2.4,2.3,3.7L85.8,46.3l.6,1c.4.6.6.6,1.1,0l2.7-3.4,21.7-27.3L124.6.7l.6-.7,1,.6,12.7,9.9c4.3,3.4,8.5,6.9,12.7,10.4,1.3,1,1.4,1.1.5,2.4a34.5,34.5,0,0,1-3.5,5L130.5,51.1l-6.1,7.7a1.8,1.8,0,0,1-.5.7l1.2.2,13.2.2,16.8.3,11.3.3c1.1.1,1.1.1,1.1,1.2,0,3.6-.1,7.3-.1,10.9L167.1,91c0,1.3-.1,2.6-.1,3.9s-.2,1-.8,1H145l-14.7-.3-14.4-.3h-.8l.6,1.3,12.5,21.1,10.2,17.2c.6.9.6,1-.4,1.6l-22.1,13.3c-1.7,1-3.4,1.9-5.1,3a.8.8,0,0,1-1.1-.1h-.1l-1.3-2.2L84.9,111.1l-.8-1.3-.8.6-28,35.3c-2.1,2.6-4.2,5.2-6.2,7.9l-.7.6h-.1l-.7-.5-3.6-3c-7.6-6-15.2-12-22.7-18.1-.9-.7-.9-.9-.2-1.8l2.3-2.9c6.2-7.7,12.3-15.5,18.5-23.3l7.5-9.5.3-.6a.9.9,0,0,0-.7-.3l-11.3-.3H29.1l-18.8-.3L1,93.3c-.5,0-.7-.2-.8-.7A8.8,8.8,0,0,0,0,91Z" fill="#80ffdb"/></svg>